<svg width="216" height="216" viewBox="0 0 216 216" fill="none" xmlns="http://www.w3.org/2000/svg">
<rect width="216" height="216" rx="108" fill="#D9D9D9"/>
<path opacity="0.2" d="M155.938 84.2812H122.031V50.375L155.938 84.2812Z" fill="#1447E6"/>
<path d="M159.364 80.8543L125.458 46.948C125.008 46.4984 124.474 46.1418 123.886 45.8987C123.298 45.6556 122.668 45.5308 122.031 45.5313H63.9062C61.337 45.5313 58.8729 46.5519 57.0562 48.3687C55.2394 50.1854 54.2188 52.6495 54.2188 55.2188V161.781C54.2188 164.351 55.2394 166.815 57.0562 168.631C58.8729 170.448 61.337 171.469 63.9062 171.469H151.094C153.663 171.469 156.127 170.448 157.944 168.631C159.761 166.815 160.781 164.351 160.781 161.781V84.2812C160.782 83.645 160.657 83.0148 160.414 82.4268C160.171 81.8388 159.814 81.3045 159.364 80.8543ZM126.875 62.0666L144.246 79.4375H126.875V62.0666ZM151.094 161.781H63.9062V55.2188H117.188V84.2812C117.188 85.5659 117.698 86.7979 118.606 87.7063C119.515 88.6147 120.747 89.125 122.031 89.125H151.094V161.781Z" fill="black"/>
<g filter="url(#filter0_f_6_16)">
<rect x="41" y="89" width="126" height="48" fill="#D9D9D9"/>
</g>
<path d="M61.224 98.029V128H57.311V98.029H61.224ZM79.374 104.006C82.2407 104.006 84.5627 104.88 86.34 106.629C88.1174 108.349 89.006 110.843 89.006 114.111V128H85.136V114.67C85.136 112.319 84.5484 110.528 83.373 109.295C82.1977 108.034 80.5924 107.403 78.557 107.403C76.493 107.403 74.8447 108.048 73.612 109.338C72.408 110.628 71.806 112.506 71.806 114.971V128H67.893V104.436H71.806V107.79C72.58 106.586 73.6264 105.654 74.945 104.995C76.2924 104.336 77.7687 104.006 79.374 104.006ZM108.556 128L99.3109 117.594V128H95.3979V96.18H99.3109V114.885L108.384 104.436H113.845L102.751 116.175L113.888 128H108.556ZM121.441 108.263C122.129 106.916 123.103 105.869 124.365 105.124C125.655 104.379 127.217 104.006 129.052 104.006V108.048H128.02C123.634 108.048 121.441 110.427 121.441 115.186V128H117.528V104.436H121.441V108.263ZM132.107 116.132C132.107 113.724 132.594 111.617 133.569 109.811C134.543 107.976 135.876 106.557 137.568 105.554C139.288 104.551 141.194 104.049 143.287 104.049C145.351 104.049 147.142 104.493 148.662 105.382C150.181 106.271 151.313 107.389 152.059 108.736V104.436H156.015V128H152.059V123.614C151.285 124.99 150.124 126.137 148.576 127.054C147.056 127.943 145.279 128.387 143.244 128.387C141.151 128.387 139.259 127.871 137.568 126.839C135.876 125.807 134.543 124.359 133.569 122.496C132.594 120.633 132.107 118.511 132.107 116.132ZM152.059 116.175C152.059 114.398 151.7 112.85 150.984 111.531C150.267 110.212 149.292 109.209 148.06 108.521C146.856 107.804 145.523 107.446 144.061 107.446C142.599 107.446 141.266 107.79 140.062 108.478C138.858 109.166 137.897 110.169 137.181 111.488C136.464 112.807 136.106 114.355 136.106 116.132C136.106 117.938 136.464 119.515 137.181 120.862C137.897 122.181 138.858 123.198 140.062 123.915C141.266 124.603 142.599 124.947 144.061 124.947C145.523 124.947 146.856 124.603 148.06 123.915C149.292 123.198 150.267 122.181 150.984 120.862C151.7 119.515 152.059 117.952 152.059 116.175Z" fill="black"/>
<path opacity="0.2" d="M125.636 149.149C122.045 147.672 123.144 136.633 126.836 136.625C130.667 136.631 128.422 143.225 125.636 149.149Z" fill="black"/>
<path d="M144.281 152.031H125.234C125.535 151.438 125.838 150.827 126.14 150.206C127.833 150.393 129.831 149.212 132.106 146.679C132.672 148.203 133.743 150.183 135.57 150.219C136.6 150.239 137.621 149.63 138.676 148.364C139.445 149.284 141.03 150.219 144.281 150.219C144.522 150.219 144.752 150.123 144.922 149.953C145.092 149.783 145.188 149.553 145.188 149.312C145.188 149.072 145.092 148.842 144.922 148.672C144.752 148.502 144.522 148.406 144.281 148.406C140.834 148.406 139.815 147.222 139.75 146.581C139.76 146.387 139.705 146.195 139.593 146.035C139.48 145.876 139.318 145.759 139.131 145.703C138.938 145.645 138.73 145.652 138.541 145.724C138.351 145.795 138.191 145.927 138.084 146.099C136.717 148.199 135.898 148.413 135.602 148.406C134.666 148.388 133.714 146.195 133.388 144.62C133.353 144.452 133.271 144.297 133.151 144.173C133.031 144.049 132.879 143.962 132.711 143.922C132.544 143.882 132.368 143.891 132.206 143.947C132.043 144.003 131.899 144.104 131.792 144.239C129.503 147.109 127.969 148.075 127.014 148.326C127.976 146.188 128.694 144.311 129.154 142.731C129.926 140.076 129.983 138.219 129.325 137.055C128.985 136.446 128.267 135.719 126.826 135.719C125.006 135.719 123.571 137.438 122.887 140.437C122.48 142.217 122.413 144.199 122.703 145.874C122.993 147.55 123.595 148.769 124.469 149.493C124.047 150.367 123.616 151.221 123.197 152.031H120.719C120.478 152.031 120.248 152.127 120.078 152.297C119.908 152.467 119.813 152.697 119.813 152.938C119.813 153.178 119.908 153.408 120.078 153.578C120.248 153.748 120.478 153.844 120.719 153.844H122.238C120.956 156.223 119.959 157.881 119.943 157.908C119.878 158.01 119.835 158.124 119.815 158.243C119.795 158.363 119.799 158.484 119.827 158.602C119.854 158.719 119.906 158.83 119.977 158.928C120.048 159.025 120.138 159.108 120.242 159.17C120.345 159.232 120.46 159.273 120.58 159.29C120.699 159.307 120.821 159.3 120.938 159.27C121.055 159.239 121.164 159.186 121.26 159.112C121.356 159.039 121.436 158.947 121.496 158.842C121.513 158.812 122.773 156.713 124.294 153.844H144.281C144.522 153.844 144.752 153.748 144.922 153.578C145.092 153.408 145.188 153.178 145.188 152.938C145.188 152.697 145.092 152.467 144.922 152.297C144.752 152.127 144.522 152.031 144.281 152.031ZM124.654 140.84C125.105 138.861 125.978 137.531 126.826 137.531C127.43 137.531 127.63 137.742 127.747 137.947C128.087 138.551 128.485 140.687 125.293 147.733C124.357 146.456 124.039 143.535 124.654 140.84Z" fill="#1447E6"/>
<defs>
<filter id="filter0_f_6_16" x="37" y="85" width="134" height="56" filterUnits="userSpaceOnUse" color-interpolation-filters="sRGB">
<feFlood flood-opacity="0" result="BackgroundImageFix"/>
<feBlend mode="normal" in="SourceGraphic" in2="BackgroundImageFix" result="shape"/>
<feGaussianBlur stdDeviation="2" result="effect1_foregroundBlur_6_16"/>
</filter>
</defs>
</svg>
